<svg width="100" height="100" viewBox="0 0 100 100" fill="none" xmlns="http://www.w3.org/2000/svg">
<rect width="100" height="100" fill="#111827"/>
<path d="M36.528 74.448H52.528V37.328H35.952V32.976H57.648V71.248C57.648 73.4667 57.0507 75.28 55.856 76.688C54.704 78.096 52.8693 78.8 50.352 78.8H36.528V74.448ZM55.088 25.68C53.5947 25.68 52.5493 25.3813 51.952 24.784C51.3547 24.144 51.056 23.3547 51.056 22.416V21.392C51.056 20.4533 51.3547 19.6853 51.952 19.088C52.5493 18.448 53.5947 18.128 55.088 18.128C56.5813 18.128 57.6267 18.448 58.224 19.088C58.8213 19.6853 59.12 20.4533 59.12 21.392V22.416C59.12 23.3547 58.8213 24.144 58.224 24.784C57.6267 25.3813 56.5813 25.68 55.088 25.68Z" fill="#60A5FA"/>
</svg>
